<?xml version="1.0" encoding="utf-8"?>
<!-- Generator: Adobe Illustrator 26.3.1, SVG Export Plug-In . SVG Version: 6.00 Build 0)  -->
<svg version="1.2" baseProfile="tiny" id="Layer_1" xmlns="http://www.w3.org/2000/svg" xmlns:xlink="http://www.w3.org/1999/xlink"
	 x="0px" y="0px" viewBox="0 0 251.7 49.8" overflow="visible" xml:space="preserve">
<g>
	<path fill="#FBB040" d="M46.1,22l-8.6,8.3l2.1,11.9c0.1,0.6,0,1.1-0.4,1.6c-0.3,0.5-0.8,0.8-1.3,0.9h-0.5c-0.5,0-0.9-0.1-1-0.2
		l-10.6-5.6l-10.6,5.6c-0.5,0.3-1,0.4-1.6,0.2c-0.5-0.2-1-0.5-1.3-1c-0.1-0.3-0.2-0.7-0.2-1.2l2.1-11.9l-8.6-8.3
		C5.2,21.8,5,21.3,5,20.7c0-0.6,0.2-1,0.6-1.5c0.2-0.4,0.6-0.6,1.2-0.6L18.8,17L24,6.1c0.3-0.5,0.7-0.9,1.3-1
		c0.6-0.2,1.1-0.1,1.6,0.2c0.3,0.2,0.6,0.5,0.9,0.9L33.1,17L45,18.6c0.5,0,1,0.2,1.3,0.8s0.5,1,0.4,1.5C46.7,21.4,46.5,21.8,46.1,22
		z"/>
	<path fill="#FBB040" d="M96.1,22l-8.6,8.3l2.1,11.9c0.1,0.6,0,1.1-0.4,1.6c-0.3,0.5-0.8,0.8-1.3,0.9h-0.5c-0.5,0-0.9-0.1-1-0.2
		l-10.6-5.6l-10.6,5.6c-0.5,0.3-1,0.4-1.6,0.2c-0.5-0.2-1-0.5-1.3-1c-0.1-0.3-0.2-0.7-0.2-1.2l2.1-11.9l-8.6-8.3
		c-0.4-0.4-0.6-0.9-0.6-1.5c0-0.6,0.2-1,0.6-1.5c0.2-0.4,0.6-0.6,1.2-0.6L68.8,17L74,6.1c0.3-0.5,0.7-0.9,1.3-1
		c0.6-0.2,1.1-0.1,1.6,0.2c0.3,0.2,0.6,0.5,0.9,0.9L83.1,17L95,18.6c0.5,0,1,0.2,1.3,0.8s0.5,1,0.4,1.5C96.7,21.4,96.5,21.8,96.1,22
		z"/>
	<path fill="#FBB040" d="M146.1,22l-8.6,8.3l2.1,11.9c0.1,0.6,0,1.1-0.3,1.6c-0.3,0.5-0.8,0.8-1.3,0.9h-0.4c-0.5,0-0.9-0.1-1.1-0.2
		l-10.6-5.6l-10.7,5.6c-0.5,0.3-1,0.4-1.6,0.2c-0.6-0.2-1-0.5-1.3-1c-0.1-0.3-0.2-0.7-0.2-1.2l2.1-11.9l-8.5-8.3
		c-0.4-0.4-0.6-0.9-0.6-1.5c0-0.6,0.2-1,0.6-1.5c0.2-0.4,0.6-0.6,1.2-0.6l11.9-1.6L124,6.1c0.3-0.5,0.7-0.9,1.3-1
		c0.5-0.2,1.1-0.1,1.6,0.2c0.3,0.2,0.6,0.5,0.8,0.9l5.4,10.9l11.8,1.6c0.5,0,1,0.2,1.3,0.8c0.4,0.5,0.5,1,0.4,1.5
		C146.7,21.4,146.5,21.8,146.1,22z"/>
	<path fill="#FBB040" d="M196,22l-8.5,8.3l2.1,11.9c0.1,0.6,0,1.1-0.3,1.6c-0.3,0.5-0.8,0.8-1.3,0.9h-0.4c-0.5,0-0.9-0.1-1.1-0.2
		l-10.6-5.6l-10.7,5.6c-0.5,0.3-1,0.4-1.6,0.2c-0.6-0.2-1-0.5-1.3-1c-0.1-0.3-0.2-0.7-0.2-1.2l2.1-11.9l-8.5-8.3
		c-0.4-0.4-0.6-0.9-0.6-1.5c0-0.6,0.2-1,0.6-1.5c0.2-0.4,0.6-0.6,1.2-0.6l11.9-1.6L174,6.1c0.3-0.5,0.7-0.9,1.3-1
		c0.5-0.2,1.1-0.1,1.6,0.2c0.3,0.2,0.6,0.5,0.9,0.9l5.4,10.9l11.9,1.6c0.5,0,1,0.2,1.3,0.8c0.4,0.5,0.5,1,0.4,1.5
		C196.7,21.4,196.5,21.8,196,22z"/>
	<path fill="#FBB040" d="M246,22l-8.5,8.3l2.1,11.9c0.1,0.6,0,1.1-0.3,1.6c-0.3,0.5-0.8,0.8-1.3,0.9h-0.4c-0.5,0-0.9-0.1-1.1-0.2
		l-10.6-5.6l-10.7,5.6c-0.5,0.3-1,0.4-1.6,0.2c-0.6-0.2-1-0.5-1.3-1c-0.1-0.3-0.2-0.7-0.2-1.2l2.1-11.9l-8.5-8.3
		c-0.4-0.4-0.6-0.9-0.6-1.5c0-0.6,0.2-1,0.6-1.5c0.2-0.4,0.6-0.6,1.2-0.6l11.9-1.6L224,6.1c0.3-0.5,0.7-0.9,1.3-1
		c0.5-0.2,1.1-0.1,1.6,0.2c0.3,0.2,0.6,0.5,0.9,0.9l5.4,10.9l11.9,1.6c0.5,0,1,0.2,1.3,0.8c0.4,0.5,0.5,1,0.4,1.5
		C246.7,21.4,246.5,21.8,246,22z"/>
</g>
</svg>
