<?xml version="1.0" standalone="no"?>
<!DOCTYPE svg PUBLIC "-//W3C//DTD SVG 20010904//EN"
 "http://www.w3.org/TR/2001/REC-SVG-20010904/DTD/svg10.dtd">
<svg version="1.0" xmlns="http://www.w3.org/2000/svg"
 width="1000.000000pt" height="1000.000000pt" viewBox="0 0 1000.000000 1000.000000"
 preserveAspectRatio="xMidYMid meet">
<metadata>
Created by potrace 1.11, written by Peter Selinger 2001-2013
</metadata>
<g transform="translate(0.000000,1000.000000) scale(0.100000,-0.100000)"
fill="#000000" stroke="none">
<path d="M1976 9510 c-116 -31 -241 -132 -296 -240 -66 -126 -63 -306 5 -440
45 -88 148 -182 241 -219 58 -23 175 -38 233 -29 31 5 63 9 72 11 14 2 76 -72
271 -320 7 -8 2 -32 -12 -69 -33 -90 -27 -203 17 -287 20 -39 93 -111 134
-132 70 -37 159 -48 251 -33 12 2 95 -95 278 -327 144 -181 274 -346 290 -365
32 -39 121 -151 717 -905 624 -788 583 -740 617 -740 56 0 60 52 9 117 -16 20
-35 46 -43 58 -8 12 -131 182 -274 378 -394 545 -525 726 -591 817 -57 79
-170 235 -358 495 -46 63 -165 227 -264 365 l-181 249 18 36 c70 138 37 301
-84 412 -63 58 -173 90 -260 76 -27 -4 -50 -6 -51 -5 -1 1 -42 57 -91 125 -49
68 -99 138 -111 157 -12 18 -27 36 -33 40 -6 4 1 22 18 48 129 193 106 440
-56 605 -121 125 -292 169 -466 122z"/>
<path d="M7571 9473 c-57 -15 -142 -65 -177 -104 -57 -63 -103 -185 -98 -256
4 -55 16 -109 34 -145 l19 -40 -83 -122 c-106 -155 -221 -324 -378 -556 -68
-102 -165 -243 -213 -315 -226 -331 -304 -446 -449 -660 -86 -126 -192 -284
-237 -350 -45 -66 -129 -190 -187 -275 -58 -85 -138 -202 -177 -260 -64 -93
-236 -347 -335 -494 -19 -28 -93 -136 -163 -239 -70 -103 -126 -195 -125 -205
5 -26 24 -42 52 -42 26 0 72 54 207 241 26 35 141 190 257 344 115 154 359
480 541 725 182 245 359 481 392 525 34 44 133 177 221 295 87 118 167 226
178 240 10 14 179 240 375 502 l356 477 51 -5 c60 -6 148 11 202 38 57 29 134
111 162 172 128 280 -127 585 -425 509z"/>
<path d="M5022 5148 c-27 -27 -8 -63 141 -269 83 -116 166 -230 182 -254 17
-24 38 -53 48 -66 34 -47 279 -386 912 -1264 88 -121 195 -269 239 -330 44
-60 99 -137 123 -170 23 -33 81 -114 129 -180 48 -66 119 -165 159 -220 62
-87 315 -437 700 -970 59 -82 125 -173 145 -200 l38 -51 -19 -34 c-106 -197
-43 -450 144 -578 64 -45 160 -74 242 -75 128 -2 233 41 323 131 94 95 133
198 128 336 -2 45 -9 95 -16 111 -42 98 -56 123 -102 172 -63 66 -135 108
-219 127 -64 15 -151 16 -200 2 -23 -6 -31 -2 -60 36 -19 23 -42 52 -51 63
-21 25 -138 173 -333 420 -82 105 -221 280 -308 390 -88 110 -170 214 -183
230 -62 80 -238 302 -252 320 -10 11 -145 182 -301 380 -156 198 -297 376
-313 395 -16 19 -32 40 -36 45 -6 9 -179 228 -209 265 -25 31 -619 782 -771
974 -86 110 -172 217 -191 238 -34 39 -67 48 -89 26z"/>
<path d="M4758 5123 c-14 -16 -632 -838 -1374 -1828 -742 -990 -1353 -1805
-1359 -1811 -5 -6 -32 -43 -60 -82 l-50 -72 -50 7 c-207 28 -387 -63 -478
-244 -108 -212 -16 -488 196 -591 118 -57 226 -66 348 -27 173 55 302 233 300
415 0 36 -2 74 -5 85 -12 57 -21 81 -42 121 l-24 44 98 143 c53 79 160 235
237 348 76 112 170 249 207 304 37 55 71 105 76 110 4 6 38 55 75 110 81 119
151 222 276 405 51 74 123 180 160 235 37 55 100 147 140 205 40 58 106 155
147 215 129 190 410 602 604 885 130 190 295 432 410 601 36 53 109 160 163
239 53 79 97 153 97 164 0 51 -52 61 -92 19z"/>
</g>
</svg>
